<svg xmlns="http://www.w3.org/2000/svg" width="320" height="200" viewBox="0 0 320 200">
<rect x="1" y="1" width="318" height="198" fill="white" stroke="#e0e0e0"/>
<text x="160.0" y="24" font-family="system-ui, -apple-system, Segoe UI, Noto Sans CJK TC, Microsoft JhengHei, PingFang TC, sans-serif" font-size="16" font-weight="700" fill="#333" text-anchor="middle">支撐與阻力帶</text>
<line x1="20" y1="60" x2="300" y2="60" stroke="#ddd" stroke-width="1" stroke-dasharray="4,4" />
<line x1="20" y1="100" x2="300" y2="100" stroke="#ddd" stroke-width="1" stroke-dasharray="4,4" />
<line x1="20" y1="140" x2="300" y2="140" stroke="#ddd" stroke-width="1" stroke-dasharray="4,4" />
<line x1="20" y1="180" x2="300" y2="180" stroke="#ddd" stroke-width="1" stroke-dasharray="4,4" />
<rect x="20" y="135" width="280" height="15" fill="#b2dfdb" opacity="0.6"/>
<rect x="20" y="75" width="280" height="15" fill="#ffcdd2" opacity="0.6"/>
<line x1="60" y1="132" x2="60" y2="153" stroke="#d32f2f" stroke-width="2"/><rect x="55.0" y="140" width="10" height="3" fill="#d32f2f" stroke="#d32f2f"/>
<line x1="90" y1="125" x2="90" y2="146" stroke="#1b5e20" stroke-width="2"/><rect x="85.0" y="133" width="10" height="3" fill="#1b5e20" stroke="#1b5e20"/>
<line x1="120" y1="124" x2="120" y2="145" stroke="#d32f2f" stroke-width="2"/><rect x="115.0" y="132" width="10" height="3" fill="#d32f2f" stroke="#d32f2f"/>
<line x1="150" y1="117" x2="150" y2="138" stroke="#1b5e20" stroke-width="2"/><rect x="145.0" y="125" width="10" height="3" fill="#1b5e20" stroke="#1b5e20"/>
<line x1="180" y1="116" x2="180" y2="137" stroke="#d32f2f" stroke-width="2"/><rect x="175.0" y="124" width="10" height="3" fill="#d32f2f" stroke="#d32f2f"/>
<line x1="210" y1="109" x2="210" y2="130" stroke="#1b5e20" stroke-width="2"/><rect x="205.0" y="117" width="10" height="3" fill="#1b5e20" stroke="#1b5e20"/>
<line x1="240" y1="108" x2="240" y2="129" stroke="#d32f2f" stroke-width="2"/><rect x="235.0" y="116" width="10" height="3" fill="#d32f2f" stroke="#d32f2f"/>
<line x1="270" y1="101" x2="270" y2="122" stroke="#1b5e20" stroke-width="2"/><rect x="265.0" y="109" width="10" height="3" fill="#1b5e20" stroke="#1b5e20"/>
<text x="24" y="190" font-family="system-ui, -apple-system, Segoe UI, Noto Sans CJK TC, Microsoft JhengHei, PingFang TC, sans-serif" font-size="12" font-weight="400" fill="#333" text-anchor="start">帶狀區≠精準線；觀察密集成交與多次測試較有參考性。</text>
</svg>