<svg xmlns="http://www.w3.org/2000/svg" width="320" height="200" viewBox="0 0 320 200">
<rect x="1" y="1" width="318" height="198" fill="white" stroke="#e0e0e0"/>
<text x="160.0" y="24" font-family="system-ui, -apple-system, Segoe UI, Noto Sans CJK TC, Microsoft JhengHei, PingFang TC, sans-serif" font-size="16" font-weight="700" fill="#333" text-anchor="middle">黃金／死亡交叉（MA Cross）</text>
<line x1="20" y1="60" x2="300" y2="60" stroke="#ddd" stroke-width="1" stroke-dasharray="4,4" />
<line x1="20" y1="100" x2="300" y2="100" stroke="#ddd" stroke-width="1" stroke-dasharray="4,4" />
<line x1="20" y1="140" x2="300" y2="140" stroke="#ddd" stroke-width="1" stroke-dasharray="4,4" />
<line x1="20" y1="180" x2="300" y2="180" stroke="#ddd" stroke-width="1" stroke-dasharray="4,4" />
<path d="M 20 142.21765257019905 L 26 140.0 L 32 137.78234742980095 L 38 135.59204513087755 L 44 133.45610606407695 L 50 131.40087272943288 L 56 129.45169228456268 L 62 127.63260393860526 L 68 125.96604247706529 L 74 124.4725615739868 L 80 123.17058030384207 L 86 122.07615597940088 L 92 121.2027861171662 L 98 120.56124197273374 L 104 120.15943569908066 L 110 120.00232276611796 L 116 120.09184084496471 L 122 120.42688591068327 L 128 121.00332585819996 L 134 121.81405146348636 L 140 122.84906406149791 L 146 124.09559885953902 L 152 125.53828236523351 L 158 127.15932198754349 L 164 128.93872547249077 L 170 130.85454746728377 L 176 132.8831601719787 L 182 134.99954474073274 L 188 137.17759983880265 L 194 139.39046354986027 L 200 141.61084466354794 L 206 143.8113592575097 L 212 145.96486842283818 L 218 148.04481296777453 L 224 150.0255409717669 L 230 151.88262415016848 L 236 153.59315912785493 L 242 155.13604990615858 L 248 156.49226803945973 L 254 157.64508731268165 L 260 158.58029002541525 L 266 159.28634233857557 L 272 159.7545365210422 L 278 159.97909834195858 L 284 159.95725828422226 L 290 159.68928570089238 L 296 159.17848549326277" fill="none" stroke="#616161" stroke-width="2"/>
<path d="M 20 154.7347921227895 L 26 149.17702154416813 L 32 143.0877878718461 L 38 136.6358453077366 L 44 130.0 L 50 123.3641546922634 L 56 116.91221212815391 L 62 110.82297845583187 L 68 105.26520787721051 L 74 100.39292587215851 L 80 96.34116060768415 L 86 93.2222008298498 L 92 91.1224839454675 L 98 90.10020053583781 L 104 90.1836816899294 L 110 91.3706138497 L 116 93.62810292697273 L 122 96.89358591496158 L 128 101.07656473046703 L 134 106.06111423584174 L 140 111.70909493456752 L 146 117.86398130528576 L 152 124.35519967760531 L 158 131.00285543180675 L 164 137.62271851501941 L 170 144.03132910758478 L 176 150.0510819435338 L 182 155.51514838067408 L 188 160.27209981231712 L 194 164.1901042895536 L 200 167.16058005083048 L 206 169.10120470660388 L 212 169.95819668391712 L 218 169.70780570400612 L 224 168.35697098652554 L 230 165.94312893922918 L 236 162.5331756627032 L 242 158.2216130228157 L 248 153.12792966977236 L 254 147.3932895850031 L 260 141.17661992795703 L 266 134.65020660240918 L 272 127.99491960471309 L 278 121.39520047648737 L 284 115.0339507771512 L 290 109.08746323481282 L 296 103.72053605124844" fill="none" stroke="#ff6f00" stroke-width="2"/>
<text x="24" y="190" font-family="system-ui, -apple-system, Segoe UI, Noto Sans CJK TC, Microsoft JhengHei, PingFang TC, sans-serif" font-size="12" font-weight="400" fill="#333" text-anchor="start">短均線上穿為黃金交叉；下穿為死亡交叉。</text>
</svg>